HIERARCHY
ROOT Hips
{
	OFFSET 0.000000 0.000000 0.000000
	CHANNELS 6 Xposition Yposition Zposition Zrotation Xrotation Yrotation
	JOINT Spine
	{
		OFFSET 0.000000 0.059888 0.006665
		CHANNELS 6 Xposition Yposition Zposition Zrotation Xrotation Yrotation
		JOINT Chest
		{
			OFFSET 0.000000 0.125681 -0.015911
			CHANNELS 6 Xposition Yposition Zposition Zrotation Xrotation Yrotation
			JOINT UpperChest
			{
				OFFSET 0.000000 0.122768 -0.001652
				CHANNELS 6 Xposition Yposition Zposition Zrotation Xrotation Yrotation
				JOINT Neck
				{
					OFFSET 0.000000 0.155865 0.008735
					CHANNELS 6 Xposition Yposition Zposition Zrotation Xrotation Yrotation
					JOINT Head
					{
						OFFSET 0.000000 0.095969 -0.000410
						CHANNELS 6 Xposition Yposition Zposition Zrotation Xrotation Yrotation
						JOINT LeftEye
						{
							OFFSET 0.015267 0.059218 0.021494
							CHANNELS 6 Xposition Yposition Zposition Zrotation Xrotation Yrotation
							End Site
							{
								OFFSET 0.015267 0.059218 0.021494
							}
						}
						JOINT RightEye
						{
							OFFSET -0.015267 0.059218 0.021494
							CHANNELS 6 Xposition Yposition Zposition Zrotation Xrotation Yrotation
							End Site
							{
								OFFSET -0.015267 0.059218 0.021494
							}
						}
					}
				}
				JOINT LeftShoulder
				{
					OFFSET 0.025383 0.124268 0.007699
					CHANNELS 6 Xposition Yposition Zposition Zrotation Xrotation Yrotation
					JOINT LeftUpperArm
					{
						OFFSET 0.136062 0.000000 0.000000
						CHANNELS 6 Xposition Yposition Zposition Zrotation Xrotation Yrotation
						JOINT LeftLowerArm
						{
							OFFSET 0.225446 0.000000 0.000000
							CHANNELS 6 Xposition Yposition Zposition Zrotation Xrotation Yrotation
							JOINT LeftHand
							{
								OFFSET 0.256325 0.000003 0.000015
								CHANNELS 6 Xposition Yposition Zposition Zrotation Xrotation Yrotation
								JOINT LeftIndexProximal
								{
									OFFSET 0.074229 0.008101 0.022282
									CHANNELS 6 Xposition Yposition Zposition Zrotation Xrotation Yrotation
									JOINT LeftIndexIntermediate
									{
										OFFSET 0.037712 0.000000 -0.000001
										CHANNELS 6 Xposition Yposition Zposition Zrotation Xrotation Yrotation
										JOINT LeftIndexDistal
										{
											OFFSET 0.023218 0.000022 0.000021
											CHANNELS 6 Xposition Yposition Zposition Zrotation Xrotation Yrotation
											End Site
											{
												OFFSET 0.023218 0.000022 0.000021
											}
										}
									}
								}
								JOINT LeftLittleProximal
								{
									OFFSET 0.069261 0.008101 -0.033073
									CHANNELS 6 Xposition Yposition Zposition Zrotation Xrotation Yrotation
									JOINT LeftLittleIntermediate
									{
										OFFSET 0.035643 0.000000 0.000000
										CHANNELS 6 Xposition Yposition Zposition Zrotation Xrotation Yrotation
										JOINT LeftLittleDistal
										{
											OFFSET 0.020542 0.000000 0.000000
											CHANNELS 6 Xposition Yposition Zposition Zrotation Xrotation Yrotation
											End Site
											{
												OFFSET 0.020542 0.000000 0.000000
											}
										}
									}
								}
								JOINT LeftMiddleProximal
								{
									OFFSET 0.075240 0.008101 0.002320
									CHANNELS 6 Xposition Yposition Zposition Zrotation Xrotation Yrotation
									JOINT LeftMiddleIntermediate
									{
										OFFSET 0.042007 0.000000 0.000000
										CHANNELS 6 Xposition Yposition Zposition Zrotation Xrotation Yrotation
										JOINT LeftMiddleDistal
										{
											OFFSET 0.025915 0.000000 0.000000
											CHANNELS 6 Xposition Yposition Zposition Zrotation Xrotation Yrotation
											End Site
											{
												OFFSET 0.025915 0.000000 0.000000
											}
										}
									}
								}
								JOINT LeftRingProximal
								{
									OFFSET 0.074383 0.008101 -0.015403
									CHANNELS 6 Xposition Yposition Zposition Zrotation Xrotation Yrotation
									JOINT LeftRingIntermediate
									{
										OFFSET 0.038967 0.000000 0.000000
										CHANNELS 6 Xposition Yposition Zposition Zrotation Xrotation Yrotation
										JOINT LeftRingDistal
										{
											OFFSET 0.022488 0.000000 0.000000
											CHANNELS 6 Xposition Yposition Zposition Zrotation Xrotation Yrotation
											End Site
											{
												OFFSET 0.022488 0.000000 0.000000
											}
										}
									}
								}
								JOINT LeftThumbProximal
								{
									OFFSET 0.003995 -0.010985 0.018096
									CHANNELS 6 Xposition Yposition Zposition Zrotation Xrotation Yrotation
									JOINT LeftThumbIntermediate
									{
										OFFSET 0.052819 -0.000008 -0.000074
										CHANNELS 6 Xposition Yposition Zposition Zrotation Xrotation Yrotation
										JOINT LeftThumbDistal
										{
											OFFSET 0.032489 0.000042 -0.000035
											CHANNELS 6 Xposition Yposition Zposition Zrotation Xrotation Yrotation
											End Site
											{
												OFFSET 0.032489 0.000042 -0.000035
											}
										}
									}
								}
							}
						}
					}
				}
				JOINT RightShoulder
				{
					OFFSET -0.025383 0.124268 0.007699
					CHANNELS 6 Xposition Yposition Zposition Zrotation Xrotation Yrotation
					JOINT RightUpperArm
					{
						OFFSET -0.136062 0.000000 0.000000
						CHANNELS 6 Xposition Yposition Zposition Zrotation Xrotation Yrotation
						JOINT RightLowerArm
						{
							OFFSET -0.225446 0.000000 0.000000
							CHANNELS 6 Xposition Yposition Zposition Zrotation Xrotation Yrotation
							JOINT RightHand
							{
								OFFSET -0.256325 0.000003 0.000015
								CHANNELS 6 Xposition Yposition Zposition Zrotation Xrotation Yrotation
								JOINT RightIndexProximal
								{
									OFFSET -0.074229 0.008101 0.022282
									CHANNELS 6 Xposition Yposition Zposition Zrotation Xrotation Yrotation
									JOINT RightIndexIntermediate
									{
										OFFSET -0.037712 0.000000 -0.000001
										CHANNELS 6 Xposition Yposition Zposition Zrotation Xrotation Yrotation
										JOINT RightIndexDistal
										{
											OFFSET -0.023218 0.000022 0.000021
											CHANNELS 6 Xposition Yposition Zposition Zrotation Xrotation Yrotation
											End Site
											{
												OFFSET -0.023218 0.000022 0.000021
											}
										}
									}
								}
								JOINT RightLittleProximal
								{
									OFFSET -0.069261 0.008101 -0.033073
									CHANNELS 6 Xposition Yposition Zposition Zrotation Xrotation Yrotation
									JOINT RightLittleIntermediate
									{
										OFFSET -0.035643 0.000000 0.000000
										CHANNELS 6 Xposition Yposition Zposition Zrotation Xrotation Yrotation
										JOINT RightLittleDistal
										{
											OFFSET -0.020542 0.000000 0.000000
											CHANNELS 6 Xposition Yposition Zposition Zrotation Xrotation Yrotation
											End Site
											{
												OFFSET -0.020542 0.000000 0.000000
											}
										}
									}
								}
								JOINT RightMiddleProximal
								{
									OFFSET -0.075240 0.008101 0.002320
									CHANNELS 6 Xposition Yposition Zposition Zrotation Xrotation Yrotation
									JOINT RightMiddleIntermediate
									{
										OFFSET -0.042007 0.000000 0.000000
										CHANNELS 6 Xposition Yposition Zposition Zrotation Xrotation Yrotation
										JOINT RightMiddleDistal
										{
											OFFSET -0.025915 0.000000 0.000000
											CHANNELS 6 Xposition Yposition Zposition Zrotation Xrotation Yrotation
											End Site
											{
												OFFSET -0.025915 0.000000 0.000000
											}
										}
									}
								}
								JOINT RightRingProximal
								{
									OFFSET -0.074383 0.008101 -0.015403
									CHANNELS 6 Xposition Yposition Zposition Zrotation Xrotation Yrotation
									JOINT RightRingIntermediate
									{
										OFFSET -0.038967 0.000000 0.000000
										CHANNELS 6 Xposition Yposition Zposition Zrotation Xrotation Yrotation
										JOINT RightRingDistal
										{
											OFFSET -0.022488 0.000000 0.000000
											CHANNELS 6 Xposition Yposition Zposition Zrotation Xrotation Yrotation
											End Site
											{
												OFFSET -0.022488 0.000000 0.000000
											}
										}
									}
								}
								JOINT RightThumbProximal
								{
									OFFSET -0.003995 -0.010985 0.018096
									CHANNELS 6 Xposition Yposition Zposition Zrotation Xrotation Yrotation
									JOINT RightThumbIntermediate
									{
										OFFSET -0.052819 -0.000008 -0.000074
										CHANNELS 6 Xposition Yposition Zposition Zrotation Xrotation Yrotation
										JOINT RightThumbDistal
										{
											OFFSET -0.032489 0.000042 -0.000035
											CHANNELS 6 Xposition Yposition Zposition Zrotation Xrotation Yrotation
											End Site
											{
												OFFSET -0.032489 0.000042 -0.000035
											}
										}
									}
								}
							}
						}
					}
				}
			}
		}
	}
	JOINT LeftUpperLeg
	{
		OFFSET 0.087143 -0.045243 0.001548
		CHANNELS 6 Xposition Yposition Zposition Zrotation Xrotation Yrotation
		JOINT LeftLowerLeg
		{
			OFFSET 0.000000 -0.394432 -0.000001
			CHANNELS 6 Xposition Yposition Zposition Zrotation Xrotation Yrotation
			JOINT LeftFoot
			{
				OFFSET 0.000000 -0.466446 0.003058
				CHANNELS 6 Xposition Yposition Zposition Zrotation Xrotation Yrotation
				JOINT LeftToes
				{
					OFFSET 0.000000 -0.079218 0.140851
					CHANNELS 6 Xposition Yposition Zposition Zrotation Xrotation Yrotation
					End Site
					{
						OFFSET 0.000000 -0.079218 0.140851
					}
				}
			}
		}
	}
	JOINT RightUpperLeg
	{
		OFFSET -0.087143 -0.045243 0.001548
		CHANNELS 6 Xposition Yposition Zposition Zrotation Xrotation Yrotation
		JOINT RightLowerLeg
		{
			OFFSET 0.000000 -0.394432 -0.000001
			CHANNELS 6 Xposition Yposition Zposition Zrotation Xrotation Yrotation
			JOINT RightFoot
			{
				OFFSET 0.000000 -0.466446 0.003058
				CHANNELS 6 Xposition Yposition Zposition Zrotation Xrotation Yrotation
				JOINT RightToes
				{
					OFFSET 0.000000 -0.079218 0.140851
					CHANNELS 6 Xposition Yposition Zposition Zrotation Xrotation Yrotation
					End Site
					{
						OFFSET 0.000000 -0.079218 0.140851
					}
				}
			}
		}
	}
}
MOTION
Frames: 4
Frame Time: 0.041667
-0.006248 1.032328 0.005673 -1.421775 13.038998 13.770156 -0.000000 0.059888 0.006665 -1.213485 6.575705 0.575183 -0.000000 0.125681 -0.015911 -1.079170 -0.395754 -0.532680 -0.000000 0.122768 -0.001652 -0.000028 -12.397137 -0.000017 0.000000 0.155865 0.008735 -1.065252 16.989380 0.394142 -0.000000 0.095969 -0.000410 0.628760 4.123318 4.573817 0.015267 0.059218 0.021494 -1.701132 3.586986 21.747937 -0.015267 0.059218 0.021494 1.701133 3.587001 -21.747922 0.025383 0.124268 0.007699 15.781770 -2.415457 15.721941 0.136062 -0.000000 -0.000000 -94.962524 14.195718 12.344401 0.225446 -0.000000 -0.000000 -7.940949 3.636747 -23.280259 0.256325 0.000003 0.000015 -1.977816 38.357905 0.607572 0.074229 0.008101 0.022282 -0.012967 0.667618 1.112106 0.037712 0.000000 -0.000001 -1.679195 1.282862 0.674522 0.023218 0.000022 0.000021 -0.334984 1.286454 -0.710999 0.069261 0.008101 -0.033073 0.000004 -0.000040 0.000001 0.035643 0.000000 0.000000 0.000003 0.000002 -0.000001 0.020542 0.000000 0.000000 0.890204 -0.008557 -1.101173 0.075240 0.008101 0.002320 -0.000001 -0.000008 -0.000006 0.042007 0.000000 0.000000 0.000003 0.000040 -0.000013 0.025915 0.000000 0.000000 0.000003 0.000040 -0.000014 0.074383 0.008101 -0.015403 -0.000001 0.000015 0.000004 0.038967 0.000000 -0.000000 0.000003 -0.000000 -0.000000 0.022488 -0.000000 -0.000000 -0.712572 -0.008155 1.310729 0.003995 -0.010985 0.018096 86.199494 49.487521 -89.646581 0.052819 -0.000008 -0.000074 -2.573036 -0.739916 0.463021 0.032489 0.000042 -0.000035 4.590282 -0.705067 -0.717109 -0.025383 0.124268 0.007699 8.018996 -2.410721 -15.175678 -0.136062 -0.000000 -0.000000 67.122981 26.710356 3.812974 -0.225446 -0.000000 0.000000 5.344521 6.339302 17.908310 -0.256325 0.000003 0.000015 4.951663 33.491880 3.340725 -0.074229 0.008101 0.022282 0.012970 0.667619 -1.112106 -0.037712 0.000000 -0.000001 1.679195 1.282858 -0.674523 -0.023218 0.000022 0.000021 0.334983 1.286453 0.710998 -0.069261 0.008101 -0.033073 -0.000004 -0.000043 -0.000001 -0.035643 -0.000000 -0.000000 -0.000004 0.000004 0.000001 -0.020542 -0.000000 -0.000000 -0.890204 -0.008564 1.101173 -0.075240 0.008101 0.002320 0.000001 -0.000007 0.000005 -0.042007 -0.000000 -0.000000 -0.000003 0.000041 0.000014 -0.025915 -0.000000 -0.000000 -0.000003 0.000042 0.000014 -0.074383 0.008101 -0.015403 0.000001 0.000016 -0.000005 -0.038967 0.000000 -0.000000 -0.000002 0.000000 0.000000 -0.022488 0.000000 -0.000000 0.712571 -0.008160 -1.310728 -0.003995 -0.010985 0.018096 -86.199433 49.487521 89.646581 -0.052819 -0.000008 -0.000074 2.573045 -0.739911 -0.463022 -0.032489 0.000042 -0.000035 -4.590277 -0.705065 0.717112 0.087143 -0.045243 0.001548 -5.287179 -7.805092 -0.720040 -0.000000 -0.394432 -0.000001 3.744629 19.999590 0.157662 -0.000000 -0.466446 0.003058 3.020588 -13.975322 12.648677 0.000000 -0.079218 0.140851 -0.000001 0.248280 0.000000 -0.087143 -0.045243 0.001548 -11.098669 -12.825701 -2.493420 0.000000 -0.394432 -0.000001 9.744340 25.950448 -20.325046 -0.000000 -0.466446 0.003058 7.550428 -15.337139 27.181117 -0.000000 -0.079218 0.140851 0.000000 0.248283 -0.000002 
-0.009287 1.032666 0.006508 -1.354188 12.915019 13.688383 -0.000000 0.059888 0.006665 -1.014601 6.746239 0.547803 0.000000 0.125681 -0.015911 -0.885070 -0.225942 -0.482057 -0.000000 0.122768 -0.001652 -0.000027 -12.397137 -0.000016 0.000000 0.155865 0.008735 -1.165388 17.070806 0.381671 0.000000 0.095969 -0.000410 0.580640 4.221087 5.635459 0.015267 0.059218 0.021494 -1.701130 3.586992 21.747940 -0.015267 0.059218 0.021494 1.701132 3.587002 -21.747922 0.025383 0.124268 0.007699 15.633195 -2.518480 15.916219 0.136062 -0.000000 -0.000000 -94.435637 14.229700 12.420811 0.225446 -0.000000 0.000000 -7.942655 3.282573 -23.099850 0.256325 0.000003 0.000015 -1.549095 37.219931 0.277504 0.074229 0.008101 0.022282 -0.012968 0.667621 1.112106 0.037712 -0.000000 -0.000001 -1.679196 1.282858 0.674522 0.023218 0.000022 0.000021 -0.334984 1.286454 -0.710999 0.069261 0.008101 -0.033073 0.000004 -0.000042 0.000001 0.035643 -0.000000 -0.000000 0.000003 -0.000002 0.000000 0.020542 -0.000000 -0.000000 0.890203 -0.008562 -1.101172 0.075240 0.008101 0.002320 -0.000002 -0.000006 -0.000006 0.042007 0.000000 -0.000000 0.000004 0.000036 -0.000013 0.025915 -0.000000 -0.000000 0.000003 0.000038 -0.000013 0.074383 0.008101 -0.015403 -0.000001 0.000016 0.000003 0.038967 0.000000 0.000000 0.000003 0.000001 -0.000000 0.022488 0.000000 -0.000000 -0.712572 -0.008158 1.310730 0.003995 -0.010985 0.018096 86.199487 49.487524 -89.646581 0.052819 -0.000008 -0.000074 -2.573040 -0.739915 0.463023 0.032489 0.000042 -0.000035 4.590286 -0.705072 -0.717109 -0.025383 0.124268 0.007699 7.776504 -2.515990 -15.333587 -0.136062 -0.000000 -0.000000 67.397254 25.957649 3.015625 -0.225446 -0.000000 -0.000000 5.250836 4.344822 17.763497 -0.256325 0.000003 0.000015 5.718845 32.690020 2.588532 -0.074229 0.008101 0.022282 0.012969 0.667619 -1.112106 -0.037712 0.000000 -0.000001 1.679194 1.282864 -0.674521 -0.023218 0.000022 0.000021 0.334983 1.286455 0.711000 -0.069261 0.008101 -0.033073 -0.000004 -0.000048 -0.000001 -0.035643 -0.000000 -0.000000 -0.000003 -0.000001 -0.000000 -0.020542 -0.000000 -0.000000 -0.890204 -0.008563 1.101172 -0.075240 0.008101 0.002320 0.000001 -0.000010 0.000006 -0.042007 -0.000000 -0.000000 -0.000002 0.000040 0.000015 -0.025915 -0.000000 0.000000 -0.000002 0.000038 0.000013 -0.074383 0.008101 -0.015403 0.000001 0.000011 -0.000003 -0.038967 0.000000 0.000000 -0.000003 0.000001 0.000000 -0.022488 0.000000 -0.000000 0.712571 -0.008160 -1.310729 -0.003995 -0.010985 0.018096 -86.199426 49.487514 89.646581 -0.052819 -0.000008 -0.000074 2.573041 -0.739910 -0.463018 -0.032489 0.000042 -0.000035 -4.590282 -0.705066 0.717107 0.087143 -0.045243 0.001548 -4.850188 -8.039058 -0.679898 -0.000000 -0.394432 -0.000001 3.512966 20.575907 -3.572304 0.000000 -0.466446 0.003058 3.785829 -13.833997 15.871951 0.000000 -0.079218 0.140851 0.000000 0.248288 -0.000001 -0.087143 -0.045243 0.001548 -10.912512 -12.691427 -2.425404 0.000000 -0.394432 -0.000001 9.736140 26.041305 -20.267535 -0.000000 -0.466446 0.003058 7.430748 -14.973974 27.364608 -0.000000 -0.079218 0.140851 0.000001 0.248292 -0.000000 
-0.012205 1.033348 0.005534 -1.328028 12.713694 13.302325 0.000000 0.059888 0.006665 -0.841105 6.919558 0.718583 0.000000 0.125681 -0.015911 -0.684296 -0.047714 -0.434954 -0.000000 0.122768 -0.001652 -0.000029 -12.397140 -0.000019 0.000000 0.155865 0.008735 -1.221204 17.168194 0.370858 -0.000000 0.095969 -0.000410 0.685769 4.355287 6.680475 0.015267 0.059218 0.021494 -1.701132 3.586990 21.747934 -0.015267 0.059218 0.021494 1.701134 3.587003 -21.747922 0.025383 0.124268 0.007699 15.612330 -2.637356 16.110722 0.136062 0.000000 -0.000000 -93.957441 14.657466 12.282914 0.225446 0.000000 0.000000 -7.959114 2.614018 -22.928260 0.256325 0.000003 0.000015 -1.247537 35.730458 0.245741 0.074229 0.008101 0.022282 -0.012965 0.667622 1.112105 0.037712 0.000000 -0.000001 -1.679195 1.282860 0.674521 0.023218 0.000022 0.000021 -0.334985 1.286454 -0.711000 0.069261 0.008101 -0.033073 0.000006 -0.000040 0.000001 0.035643 0.000000 0.000000 0.000003 -0.000001 -0.000000 0.020542 -0.000000 -0.000000 0.890204 -0.008563 -1.101172 0.075240 0.008101 0.002320 0.000001 -0.000004 -0.000006 0.042007 0.000000 -0.000000 0.000003 0.000038 -0.000014 0.025915 -0.000000 0.000000 0.000003 0.000040 -0.000013 0.074383 0.008101 -0.015403 0.000001 0.000017 0.000004 0.038967 -0.000000 -0.000000 0.000003 -0.000001 -0.000000 0.022488 0.000000 -0.000000 -0.712571 -0.008157 1.310730 0.003995 -0.010985 0.018096 86.199494 49.487521 -89.646581 0.052819 -0.000008 -0.000074 -2.573039 -0.739915 0.463023 0.032489 0.000042 -0.000035 4.590284 -0.705067 -0.717111 -0.025383 0.124268 0.007699 7.654427 -2.636515 -15.524159 -0.136062 -0.000000 -0.000000 67.239818 25.362642 2.489503 -0.225446 -0.000000 -0.000000 5.248861 2.695386 17.431336 -0.256325 0.000003 0.000015 6.104124 30.861831 1.889142 -0.074229 0.008101 0.022282 0.012969 0.667615 -1.112105 -0.037712 0.000000 -0.000001 1.679194 1.282859 -0.674523 -0.023218 0.000022 0.000021 0.334983 1.286455 0.710999 -0.069261 0.008101 -0.033073 -0.000005 -0.000044 -0.000001 -0.035643 0.000000 -0.000000 -0.000003 -0.000004 0.000000 -0.020542 -0.000000 -0.000000 -0.890204 -0.008565 1.101171 -0.075240 0.008101 0.002320 0.000000 -0.000009 0.000005 -0.042007 -0.000000 -0.000000 -0.000003 0.000038 0.000013 -0.025915 -0.000000 -0.000000 -0.000003 0.000036 0.000012 -0.074383 0.008101 -0.015403 0.000000 0.000013 -0.000005 -0.038967 0.000000 -0.000000 -0.000003 -0.000006 0.000000 -0.022488 0.000000 -0.000000 0.712571 -0.008163 -1.310730 -0.003995 -0.010985 0.018096 -86.199433 49.487521 89.646581 -0.052819 -0.000008 -0.000074 2.573037 -0.739911 -0.463025 -0.032489 0.000042 -0.000035 -4.590280 -0.705069 0.717107 0.087143 -0.045243 0.001548 -4.360208 -8.872588 -0.673797 0.000000 -0.394432 -0.000001 2.962513 21.577280 -5.118543 0.000000 -0.466446 0.003058 4.508166 -14.383117 18.043586 0.000000 -0.079218 0.140851 -0.000001 0.248287 -0.000000 -0.087143 -0.045243 0.001548 -10.640251 -13.104175 -2.438990 0.000000 -0.394432 -0.000001 9.568373 26.211092 -19.846839 -0.000000 -0.466446 0.003058 7.199216 -14.597455 27.214465 -0.000000 -0.079218 0.140851 0.000000 0.248285 0.000000 
-0.014292 1.034276 0.004000 -1.256692 12.552210 12.730916 0.000000 0.059888 0.006665 -0.759425 7.017321 0.954783 0.000000 0.125681 -0.015911 -0.567090 0.051655 -0.410214 -0.000000 0.122768 -0.001652 -0.000027 -12.397137 -0.000018 -0.000000 0.155865 0.008735 -1.234003 17.245051 0.366162 0.000000 0.095969 -0.000410 0.796890 4.464141 7.543607 0.015267 0.059218 0.021494 -1.701129 3.586996 21.747937 -0.015267 0.059218 0.021494 1.701132 3.587006 -21.747923 0.025383 0.124268 0.007699 15.663625 -2.709259 16.210877 0.136062 0.000000 -0.000000 -93.548900 15.115299 12.075386 0.225446 -0.000000 0.000000 -7.926691 1.832417 -22.799397 0.256325 0.000003 0.000015 -1.039697 34.352457 0.262961 0.074229 0.008101 0.022282 -0.012966 0.667619 1.112106 0.037712 0.000000 -0.000001 -1.679195 1.282860 0.674522 0.023218 0.000022 0.000021 -0.334984 1.286451 -0.711000 0.069261 0.008101 -0.033073 0.000005 -0.000041 0.000002 0.035643 -0.000000 0.000000 0.000003 -0.000000 -0.000000 0.020542 -0.000000 -0.000000 0.890205 -0.008560 -1.101172 0.075240 0.008101 0.002320 -0.000000 -0.000007 -0.000005 0.042007 -0.000000 -0.000000 0.000004 0.000038 -0.000013 0.025915 0.000000 -0.000000 0.000003 0.000036 -0.000013 0.074383 0.008101 -0.015403 -0.000000 0.000016 0.000005 0.038967 0.000000 -0.000000 0.000003 -0.000002 -0.000000 0.022488 -0.000000 0.000000 -0.712571 -0.008159 1.310730 0.003995 -0.010985 0.018096 86.199487 49.487521 -89.646574 0.052819 -0.000008 -0.000074 -2.573041 -0.739913 0.463020 0.032489 0.000042 -0.000035 4.590290 -0.705067 -0.717109 -0.025383 0.124268 0.007699 7.651867 -2.709021 -15.637940 -0.136062 -0.000000 -0.000000 66.867743 25.029073 2.283284 -0.225446 -0.000000 0.000000 5.268853 1.253334 17.098586 -0.256325 0.000003 0.000015 6.316448 29.451281 1.295014 -0.074229 0.008101 0.022282 0.012969 0.667620 -1.112106 -0.037712 0.000000 -0.000001 1.679195 1.282863 -0.674522 -0.023218 0.000022 0.000021 0.334983 1.286455 0.710999 -0.069261 0.008101 -0.033073 -0.000004 -0.000042 -0.000001 -0.035643 -0.000000 -0.000000 -0.000003 -0.000001 -0.000001 -0.020542 -0.000000 -0.000000 -0.890204 -0.008564 1.101171 -0.075240 0.008101 0.002320 0.000001 -0.000010 0.000006 -0.042007 -0.000000 -0.000000 -0.000003 0.000036 0.000013 -0.025915 -0.000000 -0.000000 -0.000004 0.000039 0.000013 -0.074383 0.008101 -0.015403 0.000000 0.000009 -0.000004 -0.038967 0.000000 0.000000 -0.000003 -0.000001 -0.000001 -0.022488 0.000000 0.000000 0.712572 -0.008156 -1.310730 -0.003995 -0.010985 0.018096 -86.199433 49.487514 89.646581 -0.052819 -0.000008 -0.000074 2.573040 -0.739907 -0.463018 -0.032489 0.000042 -0.000035 -4.590281 -0.705065 0.717108 0.087143 -0.045243 0.001548 -4.080400 -9.650798 -0.685190 -0.000000 -0.394432 -0.000001 2.432063 22.591004 -4.812061 0.000000 -0.466446 0.003058 4.902420 -14.996281 18.769256 0.000000 -0.079218 0.140851 -0.000001 0.248285 0.000000 -0.087143 -0.045243 0.001548 -10.427092 -13.630274 -2.483099 0.000000 -0.394432 -0.000001 9.296100 26.398254 -19.213377 -0.000000 -0.466446 0.003058 6.969473 -14.301894 26.931245 -0.000000 -0.079218 0.140851 0.000000 0.248287 0.000001 
